<svg width="806" height="911" viewBox="0 0 806 911" fill="none" xmlns="http://www.w3.org/2000/svg">
<g filter="url(#filter0_d_174_538)">
<path d="M536.683 414.333L527.267 355.008C521.303 352.811 515.025 349.829 508.433 346.063C501.842 342.296 496.035 338.372 491.013 334.292L435.454 359.717L391.667 282.5L442.517 245.304C441.889 242.479 441.497 239.262 441.34 235.652C441.183 232.042 441.104 228.825 441.104 226C441.104 223.175 441.183 219.958 441.34 216.348C441.497 212.738 441.889 209.521 442.517 206.696L391.667 169.5L435.454 92.2833L491.013 117.708C496.035 113.628 501.842 109.704 508.433 105.938C515.025 102.171 521.303 99.3458 527.267 97.4625L536.683 37.6667H623.317L632.733 96.9917C638.697 99.1889 645.053 102.092 651.802 105.702C658.551 109.312 664.279 113.314 668.988 117.708L724.546 92.2833L768.333 169.5L717.483 205.754C718.111 208.893 718.503 212.267 718.66 215.877C718.817 219.487 718.896 222.861 718.896 226C718.896 229.139 718.817 232.435 718.66 235.887C718.503 239.34 718.111 242.636 717.483 245.775L768.333 282.5L724.546 359.717L668.988 334.292C663.965 338.372 658.237 342.374 651.802 346.298C645.367 350.222 639.011 353.125 632.733 355.008L623.317 414.333H536.683ZM559.283 386.083H600.717L607.308 333.35C617.667 330.839 627.476 326.915 636.735 321.579C645.995 316.243 654.392 309.808 661.925 302.275L711.833 323.933L730.667 290.033L686.408 257.546C687.664 252.21 688.684 246.952 689.469 241.773C690.253 236.594 690.646 231.336 690.646 226C690.646 220.664 690.332 215.406 689.704 210.227C689.076 205.048 687.978 199.79 686.408 194.454L730.667 161.967L711.833 128.067L661.925 149.725C654.706 141.564 646.544 134.737 637.442 129.244C628.339 123.751 618.294 120.219 607.308 118.65L600.717 65.9167H559.283L552.692 118.65C542.019 120.847 532.053 124.614 522.794 129.95C513.534 135.286 505.294 141.878 498.075 149.725L448.167 128.067L429.333 161.967L473.592 194.454C472.336 199.79 471.316 205.048 470.531 210.227C469.747 215.406 469.354 220.664 469.354 226C469.354 231.336 469.747 236.594 470.531 241.773C471.316 246.952 472.336 252.21 473.592 257.546L429.333 290.033L448.167 323.933L498.075 302.275C505.608 309.808 514.005 316.243 523.265 321.579C532.524 326.915 542.333 330.839 552.692 333.35L559.283 386.083ZM580 287.208C596.95 287.208 611.389 281.244 623.317 269.317C635.244 257.389 641.208 242.95 641.208 226C641.208 209.05 635.244 194.611 623.317 182.683C611.389 170.756 596.95 164.792 580 164.792C563.05 164.792 548.611 170.756 536.683 182.683C524.756 194.611 518.792 209.05 518.792 226C518.792 242.95 524.756 257.389 536.683 269.317C548.611 281.244 563.05 287.208 580 287.208Z" fill="#075886" fill-opacity="0.2" shape-rendering="crispEdges"/>
</g>
<g clip-path="url(#clip0_174_538)">
<g filter="url(#filter1_d_174_538)">
<path d="M160.108 549.876L179.413 499.148C175.727 494.744 172.149 489.583 168.677 483.666C165.206 477.75 162.42 472.063 160.319 466.606L105.343 461.541L105.76 381.332L162.34 375.055C163.119 372.559 164.259 369.861 165.759 366.961C167.26 364.062 168.646 361.505 169.916 359.291C171.187 357.077 172.696 354.591 174.442 351.833C176.189 349.075 177.944 346.73 179.706 344.798L156.587 292.776L225.634 251.959L257.738 296.874C263.509 295.935 269.825 295.472 276.685 295.485C283.545 295.498 289.735 296.108 295.256 297.314L329.532 254.689L397.425 293.656L378.12 344.384C381.806 348.788 385.481 353.923 389.146 359.787C392.811 365.652 395.5 371.365 397.214 376.926L452.19 381.991L451.773 462.2L395.616 467.739C394.696 470.482 393.486 473.302 391.985 476.202C390.485 479.101 389.028 481.781 387.617 484.241C386.205 486.701 384.661 489.248 382.985 491.884C381.309 494.519 379.519 496.925 377.615 499.103L400.946 550.756L331.899 591.574L299.795 546.659C294.024 547.597 287.734 548.157 280.927 548.338C274.119 548.518 267.832 547.935 262.065 546.587L228.001 588.843L160.108 549.876ZM190.526 537.902L222.997 556.539L251.882 518.177C261.129 520.869 270.581 522.206 280.238 522.189C289.895 522.172 299.369 520.906 308.661 518.391L338.032 557.813L368.039 539.717L347.967 494.35C351.352 490.733 354.516 487.072 357.46 483.366C360.405 479.66 363.077 475.716 365.478 471.534C367.878 467.352 369.997 463.091 371.834 458.75C373.672 454.409 375.176 449.794 376.346 444.906L425.643 439.354L426.132 404.316L377.278 398.84C375.291 389.197 371.966 380.176 367.303 371.777C362.64 363.378 356.357 356.093 348.453 349.921L367.007 305.63L334.536 286.993L305.651 325.355C296.299 322.276 286.795 320.745 277.138 320.762C267.481 320.779 258.059 322.239 248.872 325.141L219.501 285.719L189.494 303.815L209.565 349.182C206.181 352.799 203.017 356.461 200.072 360.166C197.128 363.872 194.456 367.816 192.055 371.998C189.655 376.18 187.598 380.477 185.883 384.888C184.169 389.3 182.603 393.879 181.187 398.626L131.89 404.178L131.401 439.216L180.255 444.692C182.77 453.984 186.456 462.803 191.313 471.15C196.169 479.497 202.092 486.984 209.08 493.611L190.526 537.902ZM251.235 469.734C264.519 477.358 278.517 479.179 293.229 475.196C307.942 471.214 319.11 462.581 326.734 449.297C334.358 436.014 336.179 422.016 332.197 407.303C328.214 392.591 319.581 381.422 306.298 373.798C293.014 366.174 279.016 364.353 264.304 368.336C249.591 372.318 238.423 380.951 230.799 394.235C223.175 407.518 221.354 421.516 225.336 436.229C229.319 450.941 237.952 462.11 251.235 469.734Z" fill="#2775A1" fill-opacity="0.2" shape-rendering="crispEdges"/>
</g>
</g>
<g clip-path="url(#clip1_174_538)">
<g filter="url(#filter2_d_174_538)">
<path d="M429.373 662.454L455.009 626.761C453.038 622.549 451.309 617.768 449.82 612.417C448.331 607.066 447.331 602.037 446.82 597.331L404.847 581.957L421.82 519.272L467.403 526.103C468.53 524.311 469.982 522.436 471.758 520.478C473.534 518.521 475.149 516.807 476.603 515.338C478.057 513.87 479.754 512.237 481.693 510.441C483.633 508.645 485.492 507.174 487.273 506.028L479.976 460.518L542.484 442.904L558.287 484.718C562.998 485.181 568.037 486.129 573.403 487.563C578.768 488.997 583.487 490.759 587.557 492.849L623.227 466.604L668.273 511.191L642.637 546.884C644.607 551.095 646.418 555.876 648.069 561.227C649.72 566.577 650.639 571.606 650.825 576.314L692.798 591.688L675.826 654.372L630.727 647.052C629.438 649.008 627.906 650.964 626.13 652.922C624.353 654.879 622.658 656.674 621.042 658.306C619.427 659.938 617.69 661.612 615.831 663.326C613.972 665.041 612.072 666.552 610.13 667.861L617.669 713.127L555.161 730.741L539.359 688.927C534.647 688.464 529.609 687.597 524.244 686.325C518.879 685.054 514.08 683.292 509.846 681.04L474.418 707.04L429.373 662.454ZM455.663 659.396L477.206 680.72L507.773 656.694C514.451 660.719 521.571 663.727 529.132 665.718C536.693 667.71 544.37 668.685 552.164 668.645L566.968 705.592L594.207 697.659L587.915 657.989C591.314 655.86 594.55 653.652 597.624 651.363C600.697 649.074 603.607 646.542 606.353 643.767C609.1 640.993 611.642 638.097 613.982 635.081C616.321 632.065 618.455 628.766 620.385 625.184L660.118 631.07L667.772 603.751L630.676 589.326C631.122 581.367 630.392 573.617 628.486 566.076C626.58 558.535 623.175 551.53 618.27 545.06L641.983 514.248L620.439 492.924L589.872 516.951C583.192 512.601 576.072 509.43 568.511 507.439C560.95 505.448 553.274 504.635 545.481 504.999L530.678 468.052L503.438 475.986L509.731 515.656C506.332 517.784 503.095 519.993 500.022 522.282C496.948 524.571 494.038 527.103 491.292 529.878C488.546 532.652 486.044 535.588 483.786 538.685C481.529 541.781 479.353 545.04 477.26 548.461L437.528 542.575L429.873 569.894L466.97 584.318C467.01 592.113 468.064 599.78 470.132 607.32C472.201 614.86 475.282 621.948 479.375 628.585L455.663 659.396ZM517.321 618.648C526.135 627.371 536.711 631.701 549.052 631.638C561.393 631.575 571.925 627.137 580.648 618.324C589.372 609.511 593.702 598.934 593.639 586.593C593.576 574.252 589.137 563.72 580.324 554.997C571.511 546.273 560.934 541.943 548.593 542.006C536.253 542.07 525.721 546.508 516.997 555.321C508.274 564.134 503.944 574.711 504.007 587.052C504.07 599.392 508.508 609.924 517.321 618.648Z" fill="#6B9EBD" fill-opacity="0.2" shape-rendering="crispEdges"/>
</g>
</g>
<g clip-path="url(#clip2_174_538)" filter="url(#filter3_d_174_538)">
<g filter="url(#filter4_d_174_538)">
<path d="M297.796 643.952L318.89 668.641C322.26 667.97 325.996 667.572 330.098 667.447C334.201 667.322 337.986 667.491 341.453 667.954L359.886 640.544L401.877 663.776L388.939 695.282C390.026 696.407 391.115 697.78 392.207 699.399C393.299 701.019 394.243 702.48 395.041 703.783C395.839 705.085 396.711 706.59 397.658 708.299C398.605 710.007 399.333 711.601 399.841 713.081L433.787 715.868L435.406 763.83L402.614 767.798C401.451 771.098 399.882 774.546 397.907 778.144C395.932 781.742 393.835 784.817 391.618 787.369L404.162 817.594L364.225 842.058L343.131 817.369C339.761 818.04 336.011 818.496 331.881 818.738C327.75 818.98 323.979 818.752 320.568 818.056L302.135 845.466L260.144 822.234L273.348 791.162C272.172 789.892 271.039 788.447 269.947 786.828C268.855 785.208 267.866 783.674 266.98 782.227C266.094 780.78 265.199 779.239 264.296 777.603C263.394 775.967 262.644 774.337 262.047 772.712L228.234 770.142L226.615 722.18L259.407 718.212C260.57 714.912 262.081 711.45 263.939 707.824C265.798 704.198 267.908 701.065 270.27 698.424L257.859 668.416L297.796 643.952ZM295.355 663.357L276.255 675.057L288.107 701.228C284.041 705.311 280.627 709.89 277.865 714.965C275.103 720.039 273.05 725.377 271.704 730.977L242.581 735.086L243.471 756.032L273.048 758.511C273.976 761.325 274.991 764.037 276.092 766.646C277.192 769.256 278.496 771.79 280.003 774.25C281.51 776.71 283.139 779.045 284.891 781.255C286.643 783.466 288.634 785.579 290.865 787.596L279.636 815.071L297.891 825.38L314.782 801.302C320.415 803.026 326.105 803.868 331.853 803.83C337.6 803.792 343.228 802.583 348.736 800.205L366.666 822.653L385.766 810.953L373.914 784.782C378.213 780.755 381.744 776.204 384.506 771.129C387.268 766.055 389.205 760.689 390.317 755.033L419.441 750.924L418.55 729.978L388.973 727.499C388.045 724.685 387.03 721.973 385.929 719.364C384.829 716.754 383.525 714.22 382.018 711.76C380.511 709.3 378.846 706.987 377.021 704.821C375.197 702.655 373.242 700.519 371.156 698.414L382.385 670.939L364.13 660.63L347.239 684.708C341.639 683.362 335.951 682.767 330.175 682.922C324.4 683.077 318.77 684.038 313.285 685.805L295.355 663.357ZM313.726 714.788C305.912 719.575 300.94 726.401 298.81 735.268C296.679 744.135 298.007 752.476 302.794 760.289C307.58 768.103 314.407 773.076 323.274 775.206C332.141 777.336 340.481 776.008 348.295 771.222C356.109 766.435 361.081 759.609 363.212 750.742C365.342 741.875 364.014 733.534 359.227 725.721C354.441 717.907 347.614 712.934 338.747 710.804C329.88 708.674 321.54 710.002 313.726 714.788Z" fill="#6B9EBD" fill-opacity="0.4" shape-rendering="crispEdges"/>
</g>
</g>
<defs>
<filter id="filter0_d_174_538" x="381.667" y="31.6667" width="396.667" height="396.667" filterUnits="userSpaceOnUse" color-interpolation-filters="sRGB">
<feFlood flood-opacity="0" result="BackgroundImageFix"/>
<feColorMatrix in="SourceAlpha" type="matrix" values="0 0 0 0 0 0 0 0 0 0 0 0 0 0 0 0 0 0 127 0" result="hardAlpha"/>
<feOffset dy="4"/>
<feGaussianBlur stdDeviation="5"/>
<feComposite in2="hardAlpha" operator="out"/>
<feColorMatrix type="matrix" values="0 0 0 0 0 0 0 0 0 0 0 0 0 0 0 0 0 0 0.25 0"/>
<feBlend mode="normal" in2="BackgroundImageFix" result="effect1_dropShadow_174_538"/>
<feBlend mode="normal" in="SourceGraphic" in2="effect1_dropShadow_174_538" result="shape"/>
</filter>
<filter id="filter1_d_174_538" x="95.3433" y="245.959" width="366.846" height="359.615" filterUnits="userSpaceOnUse" color-interpolation-filters="sRGB">
<feFlood flood-opacity="0" result="BackgroundImageFix"/>
<feColorMatrix in="SourceAlpha" type="matrix" values="0 0 0 0 0 0 0 0 0 0 0 0 0 0 0 0 0 0 127 0" result="hardAlpha"/>
<feOffset dy="4"/>
<feGaussianBlur stdDeviation="5"/>
<feComposite in2="hardAlpha" operator="out"/>
<feColorMatrix type="matrix" values="0 0 0 0 0 0 0 0 0 0 0 0 0 0 0 0 0 0 0.25 0"/>
<feBlend mode="normal" in2="BackgroundImageFix" result="effect1_dropShadow_174_538"/>
<feBlend mode="normal" in="SourceGraphic" in2="effect1_dropShadow_174_538" result="shape"/>
</filter>
<filter id="filter2_d_174_538" x="394.847" y="436.904" width="307.951" height="307.836" filterUnits="userSpaceOnUse" color-interpolation-filters="sRGB">
<feFlood flood-opacity="0" result="BackgroundImageFix"/>
<feColorMatrix in="SourceAlpha" type="matrix" values="0 0 0 0 0 0 0 0 0 0 0 0 0 0 0 0 0 0 127 0" result="hardAlpha"/>
<feOffset dy="4"/>
<feGaussianBlur stdDeviation="5"/>
<feComposite in2="hardAlpha" operator="out"/>
<feColorMatrix type="matrix" values="0 0 0 0 0 0 0 0 0 0 0 0 0 0 0 0 0 0 0.25 0"/>
<feBlend mode="normal" in2="BackgroundImageFix" result="effect1_dropShadow_174_538"/>
<feBlend mode="normal" in="SourceGraphic" in2="effect1_dropShadow_174_538" result="shape"/>
</filter>
<filter id="filter3_d_174_538" x="153.006" y="569" width="356.01" height="356.01" filterUnits="userSpaceOnUse" color-interpolation-filters="sRGB">
<feFlood flood-opacity="0" result="BackgroundImageFix"/>
<feColorMatrix in="SourceAlpha" type="matrix" values="0 0 0 0 0 0 0 0 0 0 0 0 0 0 0 0 0 0 127 0" result="hardAlpha"/>
<feOffset dy="4"/>
<feGaussianBlur stdDeviation="5"/>
<feComposite in2="hardAlpha" operator="out"/>
<feColorMatrix type="matrix" values="0 0 0 0 0 0 0 0 0 0 0 0 0 0 0 0 0 0 0.25 0"/>
<feBlend mode="normal" in2="BackgroundImageFix" result="effect1_dropShadow_174_538"/>
<feBlend mode="normal" in="SourceGraphic" in2="effect1_dropShadow_174_538" result="shape"/>
</filter>
<filter id="filter4_d_174_538" x="216.615" y="634.544" width="228.79" height="224.922" filterUnits="userSpaceOnUse" color-interpolation-filters="sRGB">
<feFlood flood-opacity="0" result="BackgroundImageFix"/>
<feColorMatrix in="SourceAlpha" type="matrix" values="0 0 0 0 0 0 0 0 0 0 0 0 0 0 0 0 0 0 127 0" result="hardAlpha"/>
<feOffset dy="4"/>
<feGaussianBlur stdDeviation="5"/>
<feComposite in2="hardAlpha" operator="out"/>
<feColorMatrix type="matrix" values="0 0 0 0 0 0 0 0 0 0 0 0 0 0 0 0 0 0 0.25 0"/>
<feBlend mode="normal" in2="BackgroundImageFix" result="effect1_dropShadow_174_538"/>
<feBlend mode="normal" in="SourceGraphic" in2="effect1_dropShadow_174_538" result="shape"/>
</filter>
<clipPath id="clip0_174_538">
<rect width="408.422" height="408.422" fill="white" transform="translate(203.309 143) rotate(29.8538)"/>
</clipPath>
<clipPath id="clip1_174_538">
<rect width="330.679" height="330.679" fill="white" transform="translate(547.626 353) rotate(44.7067)"/>
</clipPath>
<clipPath id="clip2_174_538">
<rect width="244.357" height="244.357" fill="white" transform="translate(499.016 783.371) rotate(148.51)"/>
</clipPath>
</defs>
</svg>
